<svg xmlns="http://www.w3.org/2000/svg" width="18" height="18" viewBox="0 0 18 18">
    <g>
        <g>
            <path d="M92.092 89.146h-7.905a1.112 1.112 0 0 1-1.105-1.117V81.8a5.058 5.058 0 1 1 10.116 0v6.233a1.112 1.112 0 0 1-1.106 1.113zM88.14 77.092a4.684 4.684 0 0 0-4.653 4.7v6.233a.705.705 0 0 0 .7.708h7.905a.705.705 0 0 0 .7-.708V81.8a4.684 4.684 0 0 0-4.652-4.708z" transform="translate(-36.589 -12.343) translate(-42.219 -60.764)"/>
            <path d="M138 283.881a.213.213 0 0 1-.192-.229v-5.717a.871.871 0 0 0-.786-.935h-4.583a.871.871 0 0 0-.786.935v5.717a.2.2 0 1 1-.384 0v-5.717a1.3 1.3 0 0 1 1.17-1.393h4.584a1.3 1.3 0 0 1 1.17 1.393v5.717a.213.213 0 0 1-.192.229z" transform="translate(-36.589 -12.343) translate(-88.814 -255.5)"/>
            <path d="M138.011 344.757h-6.539a.233.233 0 0 1 0-.458h6.539a.233.233 0 0 1 0 .458z" transform="translate(-36.589 -12.343) translate(-88.821 -320.568)"/>
            <path d="M291.545 346.2h-1.6a.229.229 0 0 1-.224-.281l.337-1.433a.229.229 0 0 1 .223-.177h.923a.229.229 0 0 1 .223.177l.337 1.433a.229.229 0 0 1-.223.282zm-1.306-.458h1.017l-.229-.975h-.559z" transform="translate(-36.589 -12.343) translate(-242.916 -320.681)"/>
            <path d="M169.515 17.162a.229.229 0 0 1-.229-.229v-2.056a.581.581 0 0 0-.581-.581h-4.04a.582.582 0 0 0-.581.581v2.056a.229.229 0 0 1-.458 0v-2.056a1.04 1.04 0 0 1 1.039-1.039h4.04a1.04 1.04 0 0 1 1.039 1.039v2.056a.229.229 0 0 1-.229.229z" transform="translate(-36.589 -12.343) translate(-120.764)"/>
            <path d="M196.424 46.142a.229.229 0 0 1-.229-.229v-1.138a.036.036 0 0 0-.036-.036h-3.221a.036.036 0 0 0-.036.036v1.138a.229.229 0 0 1-.458 0v-1.138a.5.5 0 0 1 .494-.494h3.221a.5.5 0 0 1 .494.494v1.138a.229.229 0 0 1-.229.229z" transform="translate(-36.589 -12.343) translate(-148.627 -29.435)"/>
            <path d="M416.063 333.254h-.754a.229.229 0 0 1-.229-.229v-3.179a.229.229 0 0 1 .229-.229h1.445a.229.229 0 0 1 .229.229v2.487a.922.922 0 0 1-.92.921zm-.525-.458h.525a.463.463 0 0 0 .463-.463v-2.258h-.988z" transform="translate(-36.589 -12.343) translate(-364.56 -306.817)"/>
            <path d="M41.092 333.254h-.754a.922.922 0 0 1-.921-.921v-2.487a.229.229 0 0 1 .229-.229h1.446a.229.229 0 0 1 .229.229v3.179a.229.229 0 0 1-.229.229zm-1.216-3.179v2.258a.463.463 0 0 0 .463.463h.525v-2.721z" transform="translate(-36.589 -12.343) translate(0 -306.817)"/>
            <path d="M195.65 151.022h-2.362a.852.852 0 0 1 0-1.7h2.362a.852.852 0 1 1 0 1.7zm-2.362-1.246a.394.394 0 0 0 0 .788h2.362a.394.394 0 1 0 0-.788z" transform="translate(-36.589 -12.343) translate(-148.611 -131.461)"/>
            <path fill="none" d="M0 0H18V18H0z" transform="translate(-36.589 -12.343) translate(36.589 12.343)"/>
        </g>
    </g>
</svg>
