<svg xmlns="http://www.w3.org/2000/svg" width="18" height="18" viewBox="0 0 18 18">
    <defs>
        <clipPath id="grabhd564a">
            <path fill="none" d="M0 0H18V18H0z" transform="translate(-1 -3)"/>
        </clipPath>
    </defs>
    <g>
        <g>
            <g clip-path="url(#grabhd564a)" transform="translate(-457 -470.109) translate(458 472.662) translate(0 0.448)">
                <path d="M477.83 234.052a12.039 12.039 0 0 0-.379-1.409v-1.162a7.474 7.474 0 0 0-14.948-.009v1.162a12.206 12.206 0 0 0-.4 1.426 1.593 1.593 0 0 0 .152 1.452 1.707 1.707 0 0 0 1.307.389 10.893 10.893 0 0 0 1.459-.125c2.334-.319 4.959-.395 4.959-.395s2.643.078 4.959.395c1.616.224 2.357.148 2.742-.273a1.5 1.5 0 0 0 .152-1.452zm-.963-2.579v.848c-.2-.055-.414-.107-.624-.157h-.015q-1.018-.247-2.083-.4v-.29c0-2.878-.875-5.324-2.179-6.566a6.872 6.872 0 0 1 4.9 6.569zm-.875 2.135c-.222.244-1.138.151-1.809.058-1.975-.273-4.186-.334-4.2-.334s-2.229.061-4.2.334c-.671.093-1.587.186-1.809-.058-.094-.1-.1-.345 0-.72l.044-.174a29.487 29.487 0 0 1 6.173-.662 25.2 25.2 0 0 1 5.773.648l.047.189c.082.366.082.607-.015.711zm-6.015-8.991c1.978 0 3.585 3.075 3.585 6.86v.2a27.118 27.118 0 0 0-3.387-.209 30.145 30.145 0 0 0-3.793.241v-.229c.009-3.784 1.616-6.86 3.594-6.86zm-6.891 6.857a6.875 6.875 0 0 1 4.9-6.566c-1.307 1.243-2.179 3.688-2.179 6.566v.311a25.762 25.762 0 0 0-2.722.54zm14.169 3.645c-.292.311-1.339.209-2.229.087-2.334-.32-5.026-.4-5.05-.4s-2.719.081-5.05.4c-.875.122-1.946.224-2.229-.087-.128-.142-.134-.444-.017-.921.19-.772.292-1.109.333-1.252l.353-.093a1.253 1.253 0 0 0 .163 1.136c.379.418 1.167.4 2.334.244 1.922-.264 4.114-.325 4.114-.328s2.2.064 4.131.328a9 9 0 0 0 1.193.1 1.461 1.461 0 0 0 1.129-.345 1.233 1.233 0 0 0 .163-1.139l.356.1c.047.142.146.479.333 1.249.108.479.1.781-.026.923zm0 0" transform="translate(-462 -224.403)"/>
            </g>
        </g>
    </g>
</svg>
