<svg xmlns="http://www.w3.org/2000/svg" width="18" height="18" viewBox="0 0 18 18">
    <defs>
        <clipPath id="jhuqli39oa">
            <path fill="none" d="M0 0H18V18H0z" transform="translate(-1 -1.865)"/>
        </clipPath>
    </defs>
    <g>
        <g>
            <g clip-path="url(#jhuqli39oa)" transform="translate(-477 -206.076) translate(478 207.527) translate(0 0.414)">
                <path d="M489.865 211.642l-.011-.011-3.293-2.926a.313.313 0 0 0-.1-.062l-2.382-.851a.313.313 0 0 0-.4.187.309.309 0 0 0-.018.091 1.695 1.695 0 0 1-3.39 0 .313.313 0 0 0-.416-.279l-2.379.861a.315.315 0 0 0-.1.062l-3.276 2.916a.313.313 0 0 0-.011.443l.011.011 2.6 2.632v7.2a.313.313 0 0 0 .313.313h9.922a.313.313 0 0 0 .313-.313v-7.2l2.6-2.632a.313.313 0 0 0 .011-.442zm-2.625 2.183v-1.452a.313.313 0 1 0-.626 0v9.215h-9.3v-9.215a.313.313 0 0 0-.626 0v1.455l-1.925-1.95 2.98-2.667 1.959-.707a2.307 2.307 0 0 0 4.529 0l1.959.707 2.97 2.667zm0 0" transform="translate(-474 -208.107)"/>
            </g>
        </g>
    </g>
</svg>
