<svg xmlns="http://www.w3.org/2000/svg" width="18" height="18" viewBox="0 0 18 18">
    <defs>
        <clipPath id="s57mm4iyua">
            <path fill="none" d="M0 0H18V18H0z" transform="translate(-1 -4.873)"/>
        </clipPath>
    </defs>
    <g>
        <g>
            <g clip-path="url(#s57mm4iyua)" transform="translate(-446 -260.582) translate(447 265.454) translate(0 0)">
                <path d="M461.047 267.1a2.225 2.225 0 0 0-.611.1.251.251 0 0 0-.173.251v.654a2.755 2.755 0 0 1-1.635.441 2.133 2.133 0 0 1-.378-.018l-1.638-1.55a.629.629 0 0 0-.451-.148 12.124 12.124 0 0 0-3.992 1.63 14.808 14.808 0 0 1-3.877 1.192l-.053.015a1.718 1.718 0 0 0-1.165 2.134c.361 1.851 4.44 1.958 5.369 1.958h8.945a.25.25 0 0 0 .25-.25v-1.335a1.087 1.087 0 0 0 .251-.531.258.258 0 0 0 0-.038v-3.756a.741.741 0 0 0-.844-.746zm-9.98 2.382l.331.6a.252.252 0 1 0 .438-.25l-.293-.533c.213-.083.416-.17.6-.265l.418.639a.25.25 0 0 0 .423-.269v-.007l-.4-.6c.18-.1.366-.205.559-.305l.5.731a.25.25 0 1 0 .426-.264l-.015-.021-.471-.676c.223-.11.448-.218.666-.315l.586.851a.25.25 0 1 0 .417-.278v-.005l-.521-.751a4.729 4.729 0 0 1 1.425-.413.4.4 0 0 1 .108 0l1 .939a7.941 7.941 0 0 1-3.942 2.815 10.7 10.7 0 0 0-2.131-.461 3.07 3.07 0 0 1-1.753-.706 15.386 15.386 0 0 0 1.628-.451zm-2.664.664a4.331 4.331 0 0 0 .443-.085 3.64 3.64 0 0 0 2.329 1.077 19.449 19.449 0 0 1 3.756 1h-1.1c-4.535.018-5.9-.341-6.3-.591a1.191 1.191 0 0 1 .872-1.4zm12.737 3.108h-8.575c-1.1.015-3.729-.158-4.67-1.019a26.047 26.047 0 0 0 5.955.423c.831 0 1.67 0 2.467-.03.751-.018 1.46-.04 2.094-.065 1.538-.058 2.612-.12 2.624-.123a.8.8 0 0 0 .105 0zm.25-1.673c-.015.073-.093.361-.376.361-.017 0-.937.055-2.286.11a3.6 3.6 0 0 1 2.662-2.449zm-3.188.491c-.568.02-1.195.04-1.851.055-.223-.085-1.169-.436-2.231-.776a8.514 8.514 0 0 0 3.506-2.712l.328.316a.249.249 0 0 0 .135.065 3.857 3.857 0 0 0 .528.033 3.085 3.085 0 0 0 2.054-.661.25.25 0 0 0 .083-.185v-.573a1.505 1.505 0 0 1 .28-.03c.343 0 .348.15.351.25l.005 1.237a4.163 4.163 0 0 0-3.188 2.983zm0 0" transform="translate(-446.446 -266.161)"/>
            </g>
        </g>
    </g>
</svg>
