<svg xmlns="http://www.w3.org/2000/svg" width="18" height="18" viewBox="0 0 18 18">
    <defs>
        <clipPath id="mxamvewx4a">
            <path fill="none" d="M0 0H18V18H0z"/>
        </clipPath>
    </defs>
    <g>
        <g>
            <g clip-path="url(#mxamvewx4a)" transform="translate(-500 -213.661) translate(500 213.661)">
                <path d="M512.946 225.173l-2.835-9.532V214.3a.287.287 0 0 0-.287-.287h-5.985a.287.287 0 0 0-.287.287v1.341l-2.835 9.532a.287.287 0 0 0 .132.33 11.892 11.892 0 0 0 5.626 1.094h.712a11.922 11.922 0 0 0 5.626-1.094.287.287 0 0 0 .132-.33zm-8.82-10.586h5.411v.807h-5.411zm3.061 11.436h-.356a12.887 12.887 0 0 1-5.491-.916l2.714-9.138h.991l-.724 3.056a.287.287 0 0 0 .212.345h.066a.287.287 0 0 0 .287-.221l.747-3.179h2.392l.758 3.188a.287.287 0 0 0 .287.221h.066a.287.287 0 0 0 .212-.345l-.732-3.064h.991l2.717 9.136a12.508 12.508 0 0 1-5.138.919zm0 0" transform="translate(-497.832 -211.997)"/>
            </g>
        </g>
    </g>
</svg>
