<svg xmlns="http://www.w3.org/2000/svg" width="18" height="18" viewBox="0 0 18 18">
    <defs>
        <clipPath id="j8pf1v5b6a">
            <path fill="none" d="M0 0H18V18H0z" transform="translate(-1 -1.771)"/>
        </clipPath>
    </defs>
    <g>
        <g>
            <g clip-path="url(#j8pf1v5b6a)" transform="translate(-467 -194.89) translate(468 196.661) translate(0 0)">
                <path d="M481.994 204.493l-2.048-1.883a.266.266 0 0 0-.376.015l-.01.011-1.077 1.33v-2.838a.266.266 0 0 0-.013-.085l-.912-2.71v-1.005a.266.266 0 0 0-.266-.266h-8.1a.266.266 0 0 0-.266.266v1.005l-.909 2.71a.266.266 0 0 0-.013.085v8.731a.266.266 0 0 0 .266.266h4.255a.266.266 0 0 0 .266-.215l.452-2.356.452 2.356a.266.266 0 0 0 .266.215h4.255a.266.266 0 0 0 .215-.117l3.6-5.167a.266.266 0 0 0-.037-.348zm-11.026-6.9h.191v.518h-.191zm-1.513 0h.981v.518h-.981zm-.923 3.577l.848-2.526h.654c-.08.625-.391 2.127-1.5 2.574zm3.776 8.422h-3.776v-7.816c1.6-.468 1.96-2.423 2.04-3.133h2.394l.011 7.473zm.667-11.483h-1.282v-.516h1.282zm3.069-.516h.981v.518h-.981zm-.723 0h.192v.518h-.192zm-1.814 0h1.282v.518h-1.282zm0 1.05h.6v3.989a1.229 1.229 0 0 1-.6 1.16zm4.441 10.949h-3.774l-.668-3.476v-1.761a1.71 1.71 0 0 0 1.133-1.76v-3.952h1.268c.08.71.449 2.659 2.04 3.133zm0-8.374c-1.109-.449-1.42-1.949-1.5-2.574h.654l.848 2.526zm.532 7.792v-4.218l.8-.968L481 205.4zm2.819-4.053l-1.691-1.545.184-.223 1.67 1.537zm0 0" transform="translate(-466.823 -195.953)"/>
            </g>
        </g>
    </g>
</svg>
