<svg xmlns="http://www.w3.org/2000/svg" width="23" height="23" viewBox="0 0 23 23">
    <defs>
        <filter id="gl365mbppa" width="23" height="23" x="0" y="0" filterUnits="userSpaceOnUse">
            <feOffset/>
            <feGaussianBlur result="blur" stdDeviation="1"/>
            <feFlood flood-opacity=".161"/>
            <feComposite in2="blur" operator="in"/>
            <feComposite in="SourceGraphic"/>
        </filter>
    </defs>
    <g>
        <g filter="url(#gl365mbppa)" transform="translate(-768 -318) translate(768 318)">
            <g fill="#fff">
                <path d="M8.5 16.5c-4.411 0-8-3.589-8-8s3.589-8 8-8 8 3.589 8 8-3.589 8-8 8z" transform="translate(3 3)"/>
                <path fill="#b4b4b4" d="M8.5 1C4.364 1 1 4.364 1 8.5S4.364 16 8.5 16 16 12.636 16 8.5 12.636 1 8.5 1m0-1C13.194 0 17 3.806 17 8.5S13.194 17 8.5 17 0 13.194 0 8.5 3.806 0 8.5 0z" transform="translate(3 3)"/>
            </g>
        </g>
        <path fill="#b4b4b4" d="M2.1-2.81h.948c-.211-1.838 1.9-2.529 1.9-4.25a2 2 0 0 0-2.196-2.084A2.923 2.923 0 0 0 .516-8.067l.609.562a2 2 0 0 1 1.51-.749A1.185 1.185 0 0 1 3.9-6.99c0 1.39-2.073 2.143-1.8 4.18zm.5 2.74a.776.776 0 0 0 .784-.808.8.8 0 0 0-.784-.832.794.794 0 0 0-.773.831.773.773 0 0 0 .773.809z" transform="translate(-768 -318) translate(776.841 334.32)"/>
    </g>
</svg>
